<?xml version="1.0" encoding="utf-8"?>
<!-- Generator: Adobe Illustrator 24.0.3, SVG Export Plug-In . SVG Version: 6.00 Build 0)  -->
<svg version="1.1" id="Ebene_1" xmlns="http://www.w3.org/2000/svg" xmlns:xlink="http://www.w3.org/1999/xlink" x="0px" y="0px"
	 viewBox="0 0 127.6 30.8" style="enable-background:new 0 0 127.6 30.8;" xml:space="preserve">
<style type="text/css">
	.st0{fill:#152540;}
</style>
<g>
	<path class="st0" d="M0,7.6c0-1,0.2-1.9,0.6-2.8s0.9-1.6,1.5-2.3C2.8,1.9,3.5,1.4,4.4,1s1.8-0.6,2.8-0.6c1,0,1.9,0.2,2.8,0.6
		s1.6,0.9,2.3,1.6c0.7,0.7,1.2,1.4,1.6,2.3c0.4,0.9,0.6,1.8,0.6,2.8s-0.2,1.9-0.6,2.8c-0.4,0.9-0.9,1.6-1.6,2.3
		c-0.7,0.6-1.4,1.2-2.3,1.5c-0.9,0.4-1.8,0.6-2.8,0.6c-1,0-1.9-0.2-2.8-0.5s-1.6-0.9-2.3-1.5s-1.2-1.4-1.5-2.3C0.2,9.6,0,8.6,0,7.6z
		 M1.9,7.6c0,0.8,0.1,1.4,0.4,2.1c0.3,0.6,0.6,1.2,1.1,1.7s1,0.9,1.7,1.1c0.6,0.3,1.3,0.4,2,0.4c0.7,0,1.4-0.1,2-0.4
		c0.6-0.3,1.2-0.7,1.6-1.1c0.5-0.5,0.8-1.1,1.1-1.7c0.3-0.6,0.4-1.3,0.4-2.1c0-0.8-0.1-1.4-0.4-2.1c-0.3-0.7-0.6-1.2-1.1-1.7
		s-1-0.9-1.7-1.2c-0.6-0.3-1.3-0.4-2-0.4c-0.7,0-1.4,0.1-2.1,0.4S3.9,3.3,3.4,3.8S2.6,4.9,2.3,5.5C2.1,6.2,1.9,6.9,1.9,7.6z"/>
	<path class="st0" d="M21.4,0.6h1.9v12.2h7.1v1.8h-9V0.6z"/>
	<path class="st0" d="M35.9,14.6L42,0h0.1l6.1,14.6h-2.2L41.5,3l1.3-0.9l-5.1,12.5L35.9,14.6L35.9,14.6z"/>
</g>
<path class="st0" d="M60.1,14.7V0.2h0l7.3,10.4l-0.8-0.2L74,0.2h0v14.4h-1.9V4.5l0.1,0.9L67,12.9h0l-5.4-7.5l0.3-0.9v10.1H60.1z"/>
<path class="st0" d="M83.6,9.7c0,0.6,0.2,1.2,0.5,1.7c0.3,0.5,0.7,0.9,1.2,1.2c0.5,0.3,1.1,0.4,1.7,0.4c0.7,0,1.2-0.1,1.8-0.4
	c0.5-0.3,0.9-0.7,1.2-1.2s0.4-1.1,0.4-1.7v-9h1.9v9.1c0,1-0.2,1.9-0.7,2.7c-0.5,0.8-1.1,1.4-1.9,1.8S88,14.8,87,14.8
	c-1,0-1.8-0.2-2.7-0.6s-1.4-1-1.9-1.8c-0.5-0.8-0.7-1.6-0.7-2.7V0.7h1.9L83.6,9.7L83.6,9.7z"/>
<path class="st0" d="M103.7,0.7c0.7,0,1.4,0.1,2,0.3s1.1,0.5,1.6,0.8c0.4,0.4,0.8,0.8,1.1,1.4c0.2,0.5,0.4,1.2,0.4,1.9
	c0,0.6-0.1,1.1-0.2,1.6c-0.2,0.5-0.4,1-0.8,1.4c-0.4,0.4-0.8,0.8-1.4,1.1c-0.6,0.3-1.3,0.4-2.2,0.4h-2.1v5.2H100v-14H103.7z
	 M103.9,7.7c0.6,0,1-0.1,1.4-0.2s0.7-0.4,0.9-0.7c0.2-0.3,0.3-0.5,0.4-0.8s0.1-0.6,0.1-0.9c0-0.3-0.1-0.6-0.2-0.9s-0.2-0.6-0.5-0.8
	s-0.5-0.5-0.8-0.6c-0.3-0.2-0.8-0.2-1.2-0.2h-2.2v5.2L103.9,7.7L103.9,7.7z M106.2,8.8l3.7,5.9h-2.2l-3.7-5.8L106.2,8.8z"/>
<polyline class="st0" points="125.4,14.7 120.8,3 122.2,2.2 117.1,14.7 115.2,14.7 121.3,0.1 121.4,0.1 127.6,14.7 "/>
<g>
	<path class="st0" d="M47.5,28.6l-2.2-4h1l1.8,3.3l-0.2,0l1.8-3.3h1l-2.2,4v2h-0.8V28.6z"/>
	<path class="st0" d="M52.7,27.6c0-0.4,0.1-0.8,0.2-1.2s0.4-0.7,0.7-1s0.6-0.5,1-0.7s0.8-0.2,1.2-0.2s0.8,0.1,1.2,0.2s0.7,0.4,1,0.7
		s0.5,0.6,0.7,1c0.2,0.4,0.2,0.8,0.2,1.2s-0.1,0.8-0.2,1.2s-0.4,0.7-0.7,1s-0.6,0.5-1,0.7s-0.8,0.2-1.2,0.2c-0.4,0-0.8-0.1-1.2-0.2
		s-0.7-0.4-1-0.6c-0.3-0.3-0.5-0.6-0.7-1C52.8,28.5,52.7,28.1,52.7,27.6z M53.5,27.6c0,0.3,0.1,0.6,0.2,0.9c0.1,0.3,0.3,0.5,0.5,0.7
		s0.5,0.4,0.7,0.5s0.6,0.2,0.9,0.2s0.6-0.1,0.9-0.2s0.5-0.3,0.7-0.5c0.2-0.2,0.4-0.5,0.5-0.7c0.1-0.3,0.2-0.6,0.2-0.9
		S58,27,57.8,26.7c-0.1-0.3-0.3-0.5-0.5-0.7c-0.2-0.2-0.4-0.4-0.7-0.5s-0.6-0.2-0.9-0.2c-0.3,0-0.6,0.1-0.9,0.2s-0.5,0.3-0.7,0.5
		s-0.4,0.5-0.5,0.7C53.6,27,53.5,27.3,53.5,27.6z"/>
	<path class="st0" d="M66.6,30.1c-0.1,0.1-0.2,0.1-0.3,0.2s-0.3,0.1-0.5,0.2c-0.2,0.1-0.4,0.1-0.6,0.1s-0.4,0-0.5,0
		c-0.5,0-0.9-0.1-1.3-0.2s-0.7-0.4-1-0.6c-0.3-0.3-0.5-0.6-0.6-0.9c-0.1-0.4-0.2-0.8-0.2-1.2c0-0.5,0.1-1,0.2-1.4
		c0.2-0.4,0.4-0.7,0.7-1s0.6-0.5,1-0.6c0.4-0.1,0.8-0.2,1.2-0.2c0.3,0,0.7,0,1,0.1s0.6,0.2,0.8,0.3l-0.3,0.7
		c-0.1-0.1-0.3-0.1-0.4-0.2c-0.2-0.1-0.3-0.1-0.5-0.1c-0.2,0-0.3,0-0.5,0c-0.4,0-0.7,0-1,0.2S63.2,25.8,63,26
		c-0.2,0.2-0.4,0.5-0.5,0.7c-0.1,0.3-0.2,0.6-0.2,1c0,0.3,0.1,0.6,0.2,0.9c0.1,0.3,0.3,0.5,0.5,0.7c0.2,0.2,0.5,0.4,0.7,0.5
		c0.3,0.1,0.6,0.2,0.9,0.2c0.2,0,0.4,0,0.6-0.1c0.2,0,0.4-0.1,0.5-0.2v-1.2h-1.2v-0.8h2L66.6,30.1L66.6,30.1z"/>
	<path class="st0" d="M69.2,30.6l2.6-6.2h0.1l2.6,6.2h-0.9l-2-5l0.6-0.4L70,30.6L69.2,30.6L69.2,30.6z M70.7,28.4h2.2l0.3,0.7h-2.7
		L70.7,28.4z"/>
</g>
</svg>
